<?xml version="1.0" encoding="utf-8"?>
<!-- Generator: Adobe Illustrator 27.9.0, SVG Export Plug-In . SVG Version: 6.00 Build 0)  -->
<svg version="1.1" id="Layer_1" xmlns="http://www.w3.org/2000/svg" xmlns:xlink="http://www.w3.org/1999/xlink" x="0px" y="0px"
	 viewBox="0 0 570.2 422.8" style="enable-background:new 0 0 570.2 422.8;" xml:space="preserve">
<style type="text/css">
	.st0{fill:none;}
	.st1{display:none;}
	.st2{display:inline;}
	.st3{font-family:'FranklinGothic-DemiCond';}
	.st4{font-size:200px;}
</style>
<g>
	<path d="M43,30h37.9v140.2h55.6v32.4H43V30z"/>
	<path d="M183.7,30h38.2l49.3,172.5h-38.8l-8.6-35.6h-48.6l-8.5,35.6h-34.8L183.7,30z M216.6,137.3l-17.4-70.7l-16.7,70.7H216.6z"/>
	<path d="M391.1,67.6l-31.3,12c-4.5-14.2-12.6-21.4-24.5-21.4c-5.6,0-10,1.6-13.2,4.7c-3.2,3.2-4.9,6.8-4.9,11.1
		c0,4.9,1.9,8.8,5.8,11.7c3.8,2.9,11.9,6.7,24.1,11.4c11.1,4.1,19.9,8.2,26.2,12.3c6.4,4,11.5,9.5,15.4,16.5c3.9,7,5.9,15,5.9,24.2
		c0,16.1-5.5,29.3-16.6,39.6c-11.1,10.3-25.9,15.5-44.6,15.5c-31.3,0-51.2-15.8-59.9-47.4l33.1-9.5c4,17.4,13.3,26,27.7,26
		c6.6,0,11.9-1.7,16-5.1c4.1-3.4,6.1-7.9,6.1-13.5c0-4.2-1.4-8-4.3-11.3c-2.9-3.3-9.4-6.8-19.7-10.6c-13.2-4.7-23.1-9-29.6-12.8
		c-6.5-3.8-11.8-9.3-16.1-16.4c-4.2-7.1-6.3-15.2-6.3-24.3c0-15.5,5-28.2,15-38.1c10-9.9,23.2-14.9,39.6-14.9
		C364.9,27.4,383.6,40.8,391.1,67.6z"/>
	<path d="M417.9,30h37.9v69.6h41.5V30h37.9v172.5h-37.9V132h-41.5v70.5h-37.9V30z"/>
	<path d="M41.3,208.6h107.6V241h-35.3v140.2H75.7V241H41.3V208.6z"/>
	<path d="M162,208.6H200v172.5H162V208.6z"/>
	<path d="M232.6,208.6h55.6l24.4,106.5L340,208.6h54v172.5h-35.5V236.7l-35.3,144.5h-27.6l-32.2-144.5v144.5h-30.8V208.6z"/>
	<path d="M426.6,208.6h104.9v29.6h-67v40.1h52.1v29.6h-52.1v42.5h67v30.8H426.6V208.6z"/>
</g>
<rect x="42.9" y="-60.6" class="st0" width="409.1" height="403.3"/>
<text transform="matrix(1 0 0 1 44.7184 72.7971)" class="st1"><tspan x="0" y="0" class="st2 st3 st4">LASH</tspan><tspan x="13.7" y="138" class="st2 st3 st4">TIME</tspan></text>
</svg>
